# xmcd CD database file
#
# Track frame offsets:
#	150
#	17046
#	39312
#	66676
#	90671
#	112311
#	135468
#	166992
#	194238
#	217697
#	243296
#	272418
#	296966
#	311516
#
# Disc length: 4412 seconds
#
# Revision: 0
# Processed by: cddbd v1.5.2PL0 Copyright (c) Steve Scherf et al.
# Submitted via: CDex 1.70beta2
#
DISCID=d2113a0e
DTITLE=TU BigBand Braunschweig - Footsteps
DYEAR=2017
DGENRE=Jazz
TTITLE0=Almost Like Being in Love
TTITLE1=Big Foot
TTITLE2=Ulla in Africa
TTITLE3=Indiferencia
TTITLE4=Afro Blue
TTITLE5=The Tunnel
TTITLE6=Fables of Faubus
TTITLE7=Kids Are Pretty People
TTITLE8=Armando's Rumba
TTITLE9=April in Paris
TTITLE10=Superstition
TTITLE11=Naima
TTITLE12=Minnie the Moocher
TTITLE13=Es ist Jazz
EXTD=YEAR: 2017
EXTT0=
EXTT1=
EXTT2=
EXTT3=
EXTT4=
EXTT5=
EXTT6=
EXTT7=
EXTT8=
EXTT9=
EXTT10=
EXTT11=
EXTT12=
EXTT13=
PLAYORDER=
